<svg width="38" height="36" viewBox="0 0 38 36" fill="none" xmlns="http://www.w3.org/2000/svg">
<g clip-path="url(#clip0_349_783)">
<path d="M26.5385 22.6901L22.5435 25.5811L28.6737 34.0156L32.6688 31.1247L26.5385 22.6901Z" fill="#FFFBF0"/>
<path d="M28.0691 18.0078L26.5398 22.6904L36.4676 25.9186L37.9969 21.236L28.0691 18.0078Z" fill="#FFFBF0"/>
<path d="M38 14.794L36.4789 10.1094L26.5457 13.3205L28.0676 18.0063L38 14.794Z" fill="#FFFBF0"/>
<path d="M28.7008 2.00023L22.556 10.4238L26.5464 13.3219L32.6912 4.89833L28.7008 2.00023Z" fill="#FFFBF0"/>
<path d="M17.5997 35.9954L22.5344 36L22.5443 25.5801L17.6089 25.5767L17.5997 35.9954Z" fill="#FFFBF0"/>
<path d="M22.5389 0.00244141H17.6042V10.4212H22.5389V0.00244141Z" fill="#FFFBF0"/>
<path d="M13.616 22.6868L7.47119 31.1104L11.4615 34.0084L17.6063 25.5849L13.616 22.6868Z" fill="#FFFBF0"/>
<path d="M15.6131 11.8686L15.6313 11.8584L15.6153 11.8721L15.6176 11.8618C16.4871 6.34419 13.7906 2.63063 8.26766 1.74527L8.26652 1.743L8.26538 1.74072L8.25968 1.77561C7.40278 7.27277 10.0913 10.9731 15.5891 11.8652L15.6127 11.8686H15.6131Z" fill="#FFFBF0"/>
<path d="M12.8562 15.6598L12.8642 15.6416L12.8607 15.6609L12.8562 15.6518C10.4162 10.8845 6.22784 9.52258 1.44706 11.9394L1.44478 11.9383H1.4425L1.45846 11.9674C3.89655 16.7108 8.06971 18.0686 12.836 15.6696L12.8562 15.6594V15.6598Z" fill="#FFFBF0"/>
<path d="M12.8573 20.3429L12.8539 20.3236L12.8619 20.3418L12.8527 20.3372C8.27829 18.0175 4.27081 19.3119 1.93229 23.865L1.93001 23.8661H1.92773L1.95699 23.8809C6.51547 26.184 10.5104 24.8925 12.847 20.3634L12.8573 20.3433V20.3429Z" fill="#FFFBF0"/>
<path d="M7.58932 9.22868L7.59616 9.22072L7.5916 9.22982L7.59046 9.22413C7.15004 6.46721 5.2926 5.11738 2.52962 5.54659H2.52848L2.52734 5.54546L2.53076 5.56252C2.97346 8.30958 4.8252 9.65487 7.57716 9.23096L7.5897 9.22868H7.58932Z" fill="#FFFBF0"/>
<path d="M5.05971 18.011L5.06085 18.0019L5.06199 18.011L5.05857 18.0075C3.45839 16.4143 1.60209 16.412 0.00191379 18.0019H-0.000366211L0.00989379 18.0121C1.60551 19.5963 3.45611 19.5985 5.05287 18.0178L5.05971 18.011Z" fill="#FFFBF0"/>
</g>
<defs>
<clipPath id="clip0_349_783">
<rect width="38" height="36" fill="white"/>
</clipPath>
</defs>
</svg>
