<svg width="192" height="36" viewBox="0 0 192 36" fill="none" xmlns="http://www.w3.org/2000/svg">
<g clip-path="url(#clip0_349_968)">
<path d="M50.9146 15.6891C50.1734 15.2541 49.5974 14.6543 49.1904 13.8916C48.7814 13.127 48.5779 12.2608 48.5779 11.2892C48.5779 10.3176 48.7834 9.48979 49.1962 8.72134C49.609 7.95482 50.183 7.34734 50.9203 6.90467C51.6576 6.46009 52.489 6.23779 53.4163 6.23779C54.5299 6.23779 55.4323 6.48308 56.1274 6.97366C56.8224 7.46424 57.3235 8.1177 57.6307 8.93022L56.0314 9.48596C55.5955 8.36683 54.7526 7.80534 53.5008 7.80534C52.8806 7.80534 52.3238 7.96248 51.8323 8.27676C51.3408 8.59103 50.9587 9.01454 50.6861 9.54728C50.4115 10.08 50.2752 10.6607 50.2752 11.2892C50.2752 11.9178 50.4115 12.5406 50.6861 13.0733C50.9587 13.606 51.3446 14.0219 51.84 14.3228C52.3354 14.6236 52.8998 14.7731 53.5296 14.7731C54.1594 14.7731 54.649 14.6485 55.0522 14.3975C55.4554 14.1484 55.7568 13.8303 55.9546 13.447C56.1542 13.0637 56.2675 12.6575 56.2963 12.232H54.1824V10.7891H57.9782V16.1471H56.8243L56.5728 15.049C56.3501 15.3537 55.9757 15.6469 55.4477 15.9229C54.9197 16.2007 54.2515 16.3406 53.4451 16.3406C52.4985 16.3406 51.6557 16.1241 50.9146 15.6891Z" fill="#FFFDF3"/>
<path d="M61.3152 6.43115H59.6467V16.1469H61.3152V6.43115Z" fill="#FFFDF3"/>
<path d="M67.6704 14.1961C68.041 13.7937 68.2272 13.2878 68.2272 12.6765C68.2272 12.0652 68.0429 11.5631 67.6704 11.1645C67.2998 10.7659 66.8352 10.5666 66.2803 10.5666C65.7254 10.5666 65.2512 10.7659 64.8902 11.1645C64.5274 11.5631 64.3469 12.0652 64.3469 12.6765C64.3469 13.2878 64.5274 13.8052 64.8902 14.2038C65.2512 14.6024 65.7139 14.8017 66.2803 14.8017C66.8467 14.8017 67.3018 14.6005 67.6704 14.1981M64.4294 15.8538C63.8822 15.5299 63.4522 15.0892 63.143 14.5296C62.832 13.97 62.6765 13.353 62.6765 12.6765C62.6765 12 62.832 11.3849 63.143 10.8311C63.4522 10.2754 63.8842 9.83652 64.4352 9.51266C64.9882 9.1888 65.6006 9.02783 66.2784 9.02783C66.9562 9.02783 67.5821 9.1888 68.1293 9.51266C68.6765 9.83652 69.1066 10.2754 69.4214 10.8311C69.7363 11.3849 69.8938 12.002 69.8938 12.6765C69.8938 13.3511 69.7363 13.97 69.4214 14.5296C69.1066 15.0892 68.6746 15.5318 68.1293 15.8538C67.5821 16.1776 66.9658 16.3386 66.2784 16.3386C65.591 16.3386 64.9747 16.1757 64.4294 15.8538Z" fill="#FFFDF3"/>
<path d="M76.2163 14.2306C76.583 13.8224 76.7654 13.305 76.7654 12.6765C76.7654 12.0479 76.583 11.5439 76.2163 11.1358C75.8496 10.7276 75.3888 10.5245 74.832 10.5245C74.2752 10.5245 73.8202 10.7257 73.463 11.1281C73.1059 11.5305 72.9274 12.046 72.9274 12.6765C72.9274 13.3069 73.104 13.8244 73.463 14.2306C73.8202 14.6369 74.2752 14.84 74.832 14.84C75.3888 14.84 75.8496 14.6369 76.2163 14.2306ZM73.7338 16.0358C73.3632 15.8327 73.0714 15.5874 72.8582 15.2999L72.6355 16.1469H71.2589V6.43311H72.9293V9.99938C73.1424 9.72151 73.4323 9.49155 73.7971 9.30567C74.1638 9.1217 74.5939 9.0278 75.0835 9.0278C75.7325 9.0278 76.3123 9.19069 76.8211 9.51263C77.3299 9.83649 77.7274 10.2772 78.0096 10.833C78.2918 11.3868 78.4339 12.0039 78.4339 12.6784C78.4339 13.3529 78.288 13.9566 77.9962 14.5181C77.7043 15.0776 77.3011 15.5222 76.7866 15.8518C76.272 16.1795 75.6998 16.3443 75.0701 16.3443C74.5517 16.3443 74.1043 16.2428 73.7338 16.0396" fill="#FFFDF3"/>
<path d="M83.2858 14.6541C83.5565 14.428 83.689 14.1156 83.689 13.717V12.9121L82.3123 13.1191C81.8765 13.1843 81.5597 13.2935 81.36 13.4468C81.1622 13.5982 81.0624 13.8186 81.0624 14.106C81.0624 14.3743 81.1699 14.5889 81.3888 14.7518C81.6058 14.9128 81.9053 14.9933 82.2854 14.9933C82.6656 14.9933 83.017 14.8802 83.2858 14.6522M80.6438 16.076C80.2829 15.8997 79.9949 15.6506 79.7818 15.3267C79.5686 15.0028 79.463 14.6272 79.463 14.2018C79.463 13.6193 79.6646 13.1249 80.0678 12.7243C80.471 12.3219 81.1814 12.0517 82.2029 11.9137L83.6909 11.7049V11.6205C83.6909 10.7793 83.2646 10.3577 82.4122 10.3577C81.9859 10.3577 81.6634 10.4516 81.4445 10.6413C81.2275 10.831 81.0893 11.1108 81.0355 11.4826L79.561 11.1204C79.7568 10.4171 80.0851 9.89202 80.5478 9.54517C81.0106 9.19831 81.6499 9.02393 82.4678 9.02393C83.2858 9.02393 83.9923 9.23855 84.5395 9.66973C85.0867 10.1009 85.3594 10.7409 85.3594 11.5918V16.145H83.9558L83.7754 15.5203C83.3856 16.0664 82.7405 16.3385 81.8419 16.3385C81.4042 16.3385 81.0067 16.2504 80.6458 16.0741" fill="#FFFDF3"/>
<path d="M88.5562 6.43115H86.8877V16.1469H88.5562V6.43115Z" fill="#FFFDF3"/>
<path d="M94.2989 6.43115H100.418V7.95654H95.9962V10.511H99.8342V11.9961H95.9962V14.6196H100.418V16.1469H94.2989V6.43115Z" fill="#FFFDF3"/>
<path d="M101.877 9.22138H103.254L103.49 10.055C104.008 9.37085 104.713 9.02783 105.604 9.02783C106.41 9.02783 107.027 9.26737 107.453 9.74837C107.879 10.2294 108.092 10.9652 108.092 11.9541V16.147H106.424V12.1783C106.424 11.1051 105.974 10.5686 105.074 10.5686C104.628 10.5686 104.262 10.7238 103.976 11.0323C103.688 11.3427 103.544 11.7797 103.544 12.345V16.147H101.875V9.22138H101.877Z" fill="#FFFDF3"/>
<path d="M114.532 11.247C114.394 11.0075 114.192 10.8063 113.927 10.6434C113.662 10.4805 113.345 10.4 112.975 10.4C112.447 10.4 112.017 10.5514 111.688 10.8522C111.358 11.1531 111.153 11.521 111.068 11.956H114.768C114.749 11.7242 114.67 11.4885 114.532 11.247ZM111.055 13.2323C111.084 13.5293 111.18 13.811 111.347 14.0793C111.514 14.3495 111.738 14.5642 112.02 14.7251C112.303 14.888 112.621 14.9685 112.973 14.9685C113.418 14.9685 113.787 14.8612 114.079 14.6485C114.371 14.4358 114.568 14.1905 114.67 13.9145L116.074 14.3457C115.86 14.9378 115.492 15.4188 114.968 15.7887C114.444 16.1585 113.777 16.3425 112.971 16.3425C112.312 16.3425 111.717 16.1854 111.183 15.8711C110.65 15.5568 110.229 15.1218 109.918 14.568C109.607 14.0123 109.452 13.3837 109.452 12.6804C109.452 11.9771 109.607 11.3754 109.918 10.8216C110.229 10.2658 110.652 9.82893 111.183 9.51082C111.717 9.19079 112.308 9.03174 112.957 9.03174C113.606 9.03174 114.192 9.18121 114.687 9.48207C115.183 9.78294 115.565 10.2026 115.834 10.7392C116.104 11.2757 116.237 11.8947 116.237 12.598V13.2361H111.049L111.055 13.2323Z" fill="#FFFDF3"/>
<path d="M117.606 9.22138H118.982L119.219 10.0262C119.386 9.7407 119.618 9.50116 119.914 9.31145C120.209 9.12173 120.563 9.02783 120.97 9.02783C121.229 9.02783 121.461 9.05849 121.665 9.12556C121.868 9.19072 122.035 9.26929 122.164 9.36127L121.567 10.8177C121.482 10.7525 121.369 10.6989 121.225 10.6529C121.081 10.6069 120.916 10.5839 120.732 10.5839C120.313 10.5839 119.965 10.7429 119.689 11.063C119.411 11.3811 119.27 11.8199 119.27 12.3737V16.1489H117.602V9.2233L117.606 9.22138Z" fill="#FFFDF3"/>
<path d="M127.304 14.0351C127.651 13.6653 127.826 13.1747 127.826 12.5653C127.826 11.9559 127.651 11.45 127.304 11.0802C126.956 10.7103 126.509 10.5244 125.962 10.5244C125.414 10.5244 124.967 10.7084 124.62 11.0802C124.272 11.45 124.097 11.9464 124.097 12.5653C124.097 13.1843 124.274 13.6653 124.625 14.0351C124.979 14.405 125.428 14.5909 125.975 14.5909C126.522 14.5909 126.956 14.4069 127.304 14.0351ZM123.813 18.5059C123.279 18.0997 122.922 17.5535 122.734 16.8675L124.291 16.5206C124.376 16.8905 124.552 17.1817 124.827 17.3887C125.1 17.5976 125.474 17.7011 125.946 17.7011C126.54 17.7011 127 17.5458 127.329 17.2354C127.659 16.925 127.824 16.4823 127.824 15.9093V15.0623C127.657 15.3497 127.39 15.5912 127.025 15.7905C126.659 15.9898 126.228 16.0894 125.739 16.0894C125.1 16.0894 124.529 15.9361 124.028 15.6314C123.527 15.3267 123.135 14.9052 122.853 14.3686C122.569 13.832 122.429 13.2303 122.429 12.5653C122.429 11.9004 122.569 11.3082 122.853 10.7678C123.135 10.2255 123.531 9.80199 124.036 9.48963C124.541 9.17918 125.103 9.02588 125.725 9.02588C126.234 9.02588 126.668 9.12744 127.025 9.33057C127.382 9.5337 127.649 9.77516 127.824 10.0511L128.129 9.21751H129.492V15.8806C129.492 16.8617 129.18 17.6455 128.554 18.2338C127.928 18.8202 127.06 19.1153 125.946 19.1153C125.055 19.1153 124.345 18.9122 123.811 18.504" fill="#FFFDF3"/>
<path d="M137.505 9.22119V15.8842C137.505 16.8654 137.213 17.6492 136.629 18.2375C136.045 18.8239 135.233 19.119 134.195 19.119C133.359 19.119 132.691 18.9178 132.184 18.5153C131.679 18.1129 131.34 17.5783 131.163 16.9114L132.72 16.5933C132.868 17.3253 133.359 17.6894 134.193 17.6894C134.703 17.6894 135.103 17.5342 135.396 17.2237C135.688 16.9133 135.834 16.4725 135.834 15.8996V15.1637L135.821 15.1215C135.562 15.4358 135.268 15.6754 134.943 15.8363C134.619 15.9973 134.212 16.0778 133.72 16.0778C132.931 16.0778 132.313 15.8382 131.864 15.3553C131.414 14.8763 131.19 14.1442 131.19 13.1631V9.22119H132.858V12.8852C132.858 13.4773 132.977 13.8989 133.219 14.1481C133.459 14.3991 133.803 14.5237 134.248 14.5237C134.721 14.5237 135.103 14.3703 135.395 14.0657C135.686 13.761 135.832 13.3259 135.832 12.7606V9.22119H137.501H137.505Z" fill="#FFFDF3"/>
<path d="M148.433 12.4407L147.016 8.62339L145.597 12.4407H148.435H148.433ZM149.004 13.9661H145.027L144.221 16.1449H142.483L146.125 6.4292H147.905L151.548 16.1449H149.81L149.004 13.9661Z" fill="#FFFDF3"/>
<path d="M154.303 6.43115H152.634V16.1469H154.303V6.43115Z" fill="#FFFDF3"/>
<path d="M157.64 6.43115H155.971V16.1469H157.64V6.43115Z" fill="#FFFDF3"/>
<path d="M159.362 9.21945H161.03V16.145H159.362V9.21945ZM159.481 7.98534C159.291 7.78987 159.195 7.55991 159.195 7.29163C159.195 7.02334 159.289 6.79147 159.481 6.59792C159.671 6.40437 159.9 6.30664 160.17 6.30664C160.441 6.30664 160.673 6.40437 160.873 6.59792C161.071 6.79147 161.172 7.02334 161.172 7.29163C161.172 7.55991 161.073 7.78987 160.873 7.98534C160.673 8.17889 160.439 8.27662 160.17 8.27662C159.901 8.27662 159.671 8.17889 159.481 7.98534Z" fill="#FFFDF3"/>
<path d="M166.245 14.6541C166.514 14.428 166.648 14.1156 166.648 13.717V12.9121L165.272 13.1191C164.836 13.1843 164.519 13.2935 164.319 13.4468C164.122 13.5982 164.022 13.8186 164.022 14.106C164.022 14.3743 164.129 14.5889 164.348 14.7518C164.565 14.9128 164.865 14.9933 165.245 14.9933C165.625 14.9933 165.976 14.8802 166.245 14.6522M163.605 16.076C163.244 15.8997 162.956 15.6506 162.743 15.3267C162.53 15.0028 162.424 14.6272 162.424 14.2018C162.424 13.6193 162.626 13.1249 163.029 12.7243C163.432 12.3238 164.143 12.0517 165.164 11.9137L166.652 11.7049V11.6205C166.652 10.7793 166.226 10.3577 165.373 10.3577C164.947 10.3577 164.625 10.4516 164.406 10.6413C164.189 10.831 164.051 11.1108 163.997 11.4826L162.522 11.1204C162.718 10.4171 163.046 9.89202 163.509 9.54517C163.972 9.19831 164.611 9.02393 165.429 9.02393C166.247 9.02393 166.954 9.23855 167.501 9.66973C168.048 10.1009 168.321 10.7409 168.321 11.5918V16.145H166.917L166.735 15.5203C166.347 16.0664 165.702 16.3385 164.801 16.3385C164.365 16.3385 163.966 16.2504 163.605 16.0741" fill="#FFFDF3"/>
<path d="M169.847 9.22138H171.224L171.46 10.055C171.978 9.37085 172.683 9.02783 173.574 9.02783C174.38 9.02783 174.996 9.26737 175.423 9.74837C175.849 10.2294 176.062 10.9652 176.062 11.9541V16.147H174.394V12.1783C174.394 11.1051 173.944 10.5686 173.044 10.5686C172.598 10.5686 172.234 10.7238 171.946 11.0323C171.658 11.3427 171.514 11.7797 171.514 12.345V16.147H169.845V9.22138H169.847Z" fill="#FFFDF3"/>
<path d="M179.165 15.8614C178.618 15.5433 178.191 15.1025 177.886 14.543C177.581 13.9834 177.427 13.3606 177.427 12.6765C177.427 11.9923 177.581 11.3849 177.886 10.8234C178.191 10.2638 178.618 9.82307 179.165 9.50304C179.712 9.18493 180.328 9.02588 181.014 9.02588C181.774 9.02588 182.433 9.22326 182.988 9.62185C183.544 10.0204 183.928 10.5474 184.141 11.2028L182.625 11.7164C182.494 11.3561 182.292 11.0744 182.012 10.8694C181.734 10.6662 181.4 10.5647 181.01 10.5647C180.444 10.5647 179.985 10.7601 179.628 11.1549C179.27 11.5478 179.092 12.0556 179.092 12.6746C179.092 13.2935 179.27 13.8033 179.628 14.2019C179.985 14.6005 180.445 14.7998 181.01 14.7998C181.38 14.7998 181.703 14.7059 181.978 14.5142C182.25 14.3245 182.452 14.0543 182.582 13.7036L184.099 14.2172C183.857 14.8649 183.466 15.3804 182.924 15.7656C182.383 16.1488 181.745 16.3405 181.012 16.3405C180.326 16.3405 179.708 16.1814 179.163 15.8614" fill="#FFFDF3"/>
<path d="M190.289 11.247C190.151 11.0075 189.949 10.8063 189.684 10.6434C189.42 10.4805 189.103 10.4 188.732 10.4C188.204 10.4 187.774 10.5514 187.446 10.8522C187.116 11.1531 186.91 11.521 186.826 11.956H190.525C190.506 11.7242 190.428 11.4885 190.289 11.247ZM186.812 13.2323C186.841 13.5293 186.937 13.811 187.104 14.0793C187.271 14.3495 187.496 14.5642 187.778 14.7251C188.062 14.888 188.379 14.9685 188.73 14.9685C189.176 14.9685 189.544 14.8612 189.836 14.6485C190.128 14.4358 190.326 14.1905 190.428 13.9145L191.831 14.3457C191.618 14.9378 191.249 15.4188 190.725 15.7887C190.201 16.1585 189.535 16.3425 188.728 16.3425C188.07 16.3425 187.475 16.1854 186.941 15.8711C186.407 15.5568 185.987 15.1218 185.676 14.568C185.364 14.0123 185.209 13.3837 185.209 12.6804C185.209 11.9771 185.364 11.3754 185.676 10.8216C185.987 10.2658 186.409 9.82893 186.941 9.51082C187.475 9.19079 188.066 9.03174 188.715 9.03174C189.364 9.03174 189.949 9.18121 190.445 9.48207C190.94 9.78294 191.322 10.2026 191.591 10.7392C191.862 11.2757 191.994 11.8947 191.994 12.598V13.2361H186.806L186.812 13.2323Z" fill="#FFFDF3"/>
<path d="M49.7837 24.6554L49.8816 24.0652C50.039 23.0323 50.7782 22.373 51.8419 22.373C52.1069 22.373 52.3334 22.4133 52.4141 22.4325L52.3162 23.0706C52.2374 23.0495 52.0493 23.0112 51.8131 23.0112C51.1238 23.0112 50.6611 23.3944 50.5517 24.1111L50.4634 24.6516H51.8323L51.744 25.2514H50.3942L49.3594 31.7285H48.6394L49.6742 25.2514H48.9062L48.9946 24.6516H49.7818L49.7837 24.6554Z" fill="#FFF8DA"/>
<path d="M56.1139 26.8075C56.1139 25.8627 55.5226 25.1863 54.5971 25.1863C53.4355 25.1863 52.4698 26.1482 52.4698 27.4169C52.4698 28.3616 53.0611 29.04 53.9866 29.04C55.1482 29.04 56.1139 28.0761 56.1139 26.8094M56.832 26.7289C56.832 28.3999 55.4938 29.6858 53.8771 29.6858C52.5965 29.6858 51.7498 28.7621 51.7498 27.4935C51.7498 25.8244 53.0995 24.5366 54.6931 24.5366C55.9834 24.5366 56.8301 25.4603 56.8301 26.7289" fill="#FFF8DA"/>
<path d="M58.368 24.6555H59.0573L58.9382 25.4124C58.9171 25.6079 58.8595 25.7669 58.8595 25.7861H58.8806C59.2646 25.0675 59.8752 24.5386 60.6144 24.5386C60.7526 24.5386 60.8794 24.5597 60.9082 24.5692L60.791 25.2764C60.7622 25.2668 60.672 25.2457 60.5549 25.2457C59.5219 25.2457 58.8211 26.4357 58.6656 27.4073L58.32 29.5689H57.5923L58.3699 24.6555H58.368Z" fill="#FFF8DA"/>
<path d="M68.2349 26.7788C68.2349 25.8647 67.7222 25.1863 66.8563 25.1863C65.9904 25.1863 64.8461 25.8934 64.8461 27.4648C64.8461 28.5571 65.5469 29.0381 66.2438 29.0381C67.3766 29.0381 68.233 28.0454 68.233 26.7788M64.5427 24.6555H65.2224L65.1437 25.2361C65.1034 25.4527 65.0554 25.6098 65.0554 25.6098H65.0765C65.4317 25.0598 66.2189 24.5386 67.0368 24.5386C68.1888 24.5386 68.9568 25.4431 68.9568 26.7002C68.9568 28.4115 67.6954 29.6877 66.2285 29.6877C65.4106 29.6877 64.8115 29.1761 64.6234 28.6357H64.6022C64.6022 28.6357 64.6118 28.7928 64.5734 29.0285L64.1395 31.7324H63.4214L64.5427 24.6574V24.6555Z" fill="#FFF8DA"/>
<path d="M72.4838 25.1671C71.5488 25.1671 70.8595 25.9049 70.6426 26.6906H73.7146C73.8528 25.9049 73.4592 25.1671 72.4838 25.1671ZM74.4614 26.4741C74.4614 26.8075 74.3731 27.0739 74.3539 27.2214H70.5427L70.5331 27.2617C70.3853 28.3329 70.9958 29.04 72.0883 29.04C72.7469 29.04 73.4669 28.8522 73.9699 28.5475L73.8624 29.2355C73.4093 29.4808 72.72 29.6877 71.952 29.6877C70.6138 29.6877 69.767 28.8024 69.767 27.507C69.767 25.8263 71.1053 24.5386 72.5933 24.5386C73.8432 24.5386 74.4634 25.4316 74.4634 26.4741" fill="#FFF8DA"/>
<path d="M79.5763 26.8075C79.5763 25.8627 78.985 25.1863 78.0595 25.1863C76.8979 25.1863 75.9322 26.1482 75.9322 27.4169C75.9322 28.3616 76.5235 29.04 77.449 29.04C78.6106 29.04 79.5763 28.0761 79.5763 26.8094M80.2963 26.7289C80.2963 28.3999 78.9581 29.6858 77.3414 29.6858C76.0608 29.6858 75.2141 28.7621 75.2141 27.4935C75.2141 25.8244 76.5638 24.5366 78.1574 24.5366C79.4477 24.5366 80.2944 25.4603 80.2944 26.7289" fill="#FFF8DA"/>
<path d="M85.561 26.7788C85.561 25.8647 85.0483 25.1863 84.1824 25.1863C83.3165 25.1863 82.1741 25.8934 82.1741 27.4648C82.1741 28.5571 82.873 29.0381 83.5718 29.0381C84.7046 29.0381 85.561 28.0454 85.561 26.7788ZM81.8688 24.6555H82.5485L82.4698 25.2361C82.4294 25.4527 82.3814 25.6098 82.3814 25.6098H82.4007C82.7559 25.0598 83.543 24.5386 84.361 24.5386C85.513 24.5386 86.281 25.4431 86.281 26.7002C86.281 28.4115 85.0195 29.6877 83.5527 29.6877C82.7347 29.6877 82.1357 29.1761 81.9475 28.6357H81.9264C81.9264 28.6357 81.936 28.7928 81.8976 29.0285L81.4637 31.7324H80.7456L81.8669 24.6574L81.8688 24.6555Z" fill="#FFF8DA"/>
<path d="M88.201 22.4937H88.9306L88.0243 28.2235C87.936 28.783 88.0531 29.0398 88.4966 29.0398C88.704 29.0398 88.871 28.9996 88.9094 28.99L88.8115 29.6205C88.7712 29.63 88.5562 29.6894 88.2298 29.6894C87.5405 29.6894 87.1162 29.3253 87.264 28.3729L88.199 22.4956L88.201 22.4937Z" fill="#FFF8DA"/>
<path d="M92.2944 25.1671C91.3594 25.1671 90.6701 25.9049 90.4531 26.6906H93.5251C93.6634 25.9049 93.2698 25.1671 92.2944 25.1671ZM94.2739 26.4741C94.2739 26.8075 94.1856 27.0739 94.1664 27.2214H90.3571L90.3475 27.2617C90.1997 28.3329 90.8103 29.04 91.9027 29.04C92.5613 29.04 93.2813 28.8522 93.7843 28.5475L93.6768 29.2355C93.2237 29.4808 92.5344 29.6877 91.7664 29.6877C90.4282 29.6877 89.5815 28.8024 89.5815 27.507C89.5815 25.8263 90.9197 24.5386 92.4077 24.5386C93.6576 24.5386 94.2778 25.4316 94.2778 26.4741" fill="#FFF8DA"/>
<path d="M98.3405 27.4456C98.3405 28.3597 98.8531 29.0381 99.7286 29.0381C100.604 29.0381 101.727 28.331 101.727 26.7577C101.727 25.6673 101.038 25.1863 100.339 25.1863C99.2064 25.1863 98.3405 26.1789 98.3405 27.4456ZM102.033 29.5689H101.353L101.441 28.9499C101.48 28.7238 101.53 28.5763 101.53 28.5763H101.51C101.155 29.1473 100.358 29.6877 99.5405 29.6877C98.3885 29.6877 97.6205 28.7832 97.6205 27.5261C97.6205 25.8148 98.8819 24.5386 100.349 24.5386C101.167 24.5386 101.806 25.0598 101.983 25.6098H102.004C102.004 25.6098 101.983 25.4527 102.033 25.2361L102.131 24.6555H102.81L102.033 29.5689Z" fill="#FFF8DA"/>
<path d="M105.078 24.6554L104.97 25.4124C104.941 25.627 104.882 25.7861 104.872 25.7956H104.892C105.137 25.3434 105.936 24.5366 107.048 24.5366C108.288 24.5366 108.595 25.2744 108.407 26.474L107.916 29.5689H107.196L107.658 26.6407C107.777 25.8934 107.766 25.215 106.84 25.215C105.798 25.215 104.901 26.0601 104.724 27.1601L104.34 29.567H103.611L104.388 24.6535H105.078V24.6554Z" fill="#FFF8DA"/>
<path d="M110.097 27.4455C110.097 28.3595 110.609 29.0379 111.485 29.0379C112.36 29.0379 113.484 28.3308 113.484 26.7575C113.484 25.6671 112.794 25.1861 112.095 25.1861C110.963 25.1861 110.097 26.1788 110.097 27.4455ZM113.789 29.5687H113.109L113.197 28.9498C113.236 28.7236 113.286 28.5761 113.286 28.5761H113.267C112.911 29.1472 112.115 29.6876 111.297 29.6876C110.145 29.6876 109.377 28.7831 109.377 27.5259C109.377 25.8147 110.638 24.5384 112.105 24.5384C112.923 24.5384 113.522 25.029 113.72 25.5521H113.739C113.739 25.5521 113.729 25.395 113.77 25.1497L114.192 22.4956H114.91L113.789 29.5707V29.5687Z" fill="#FFF8DA"/>
<path d="M122.632 26.7788C122.632 25.8647 122.12 25.1863 121.254 25.1863C120.388 25.1863 119.244 25.8934 119.244 27.4648C119.244 28.5571 119.944 29.0381 120.641 29.0381C121.774 29.0381 122.63 28.0454 122.63 26.7788M118.938 24.6555H119.618L119.539 25.2361C119.499 25.4527 119.451 25.6098 119.451 25.6098H119.472C119.827 25.0598 120.614 24.5386 121.432 24.5386C122.584 24.5386 123.352 25.4431 123.352 26.7002C123.352 28.4115 122.091 29.6877 120.624 29.6877C119.806 29.6877 119.207 29.1761 119.019 28.6357H118.998C118.998 28.6357 119.007 28.7928 118.969 29.0285L118.537 31.7324H117.817L118.938 24.6574V24.6555Z" fill="#FFF8DA"/>
<path d="M125.27 22.4937H125.998L125.092 28.2235C125.004 28.783 125.121 29.0398 125.564 29.0398C125.772 29.0398 125.939 28.9996 125.977 28.99L125.879 29.6205C125.839 29.63 125.624 29.6894 125.297 29.6894C124.608 29.6894 124.184 29.3253 124.332 28.3729L125.267 22.4956L125.27 22.4937Z" fill="#FFF8DA"/>
<path d="M127.361 27.4456C127.361 28.3597 127.874 29.0381 128.749 29.0381C129.625 29.0381 130.748 28.331 130.748 26.7577C130.748 25.6673 130.059 25.1863 129.36 25.1863C128.227 25.1863 127.361 26.1789 127.361 27.4456ZM131.053 29.5689H130.374L130.462 28.9499C130.5 28.7238 130.55 28.5763 130.55 28.5763H130.529C130.176 29.1473 129.377 29.6877 128.561 29.6877C127.409 29.6877 126.641 28.7832 126.641 27.5261C126.641 25.8148 127.903 24.5386 129.37 24.5386C130.188 24.5386 130.827 25.0598 131.004 25.6098H131.025C131.025 25.6098 131.004 25.4527 131.053 25.2361L131.151 24.6555H131.831L131.053 29.5689Z" fill="#FFF8DA"/>
<path d="M134.099 24.6554L133.991 25.4124C133.962 25.627 133.903 25.7861 133.893 25.7956H133.912C134.158 25.3434 134.957 24.5366 136.068 24.5366C137.311 24.5366 137.616 25.2744 137.428 26.474L136.936 29.5689H136.216L136.679 26.6407C136.798 25.8934 136.787 25.215 135.861 25.215C134.819 25.215 133.922 26.0601 133.745 27.1601L133.361 29.567H132.632L133.409 24.6535H134.099V24.6554Z" fill="#FFF8DA"/>
<path d="M141.122 25.1671C140.187 25.1671 139.498 25.9049 139.281 26.6906H142.353C142.491 25.9049 142.097 25.1671 141.122 25.1671ZM143.101 26.4741C143.101 26.8075 143.013 27.0739 142.994 27.2214H139.185L139.175 27.2617C139.027 28.3329 139.638 29.04 140.73 29.04C141.389 29.04 142.109 28.8522 142.612 28.5475L142.504 29.2355C142.051 29.4808 141.362 29.6877 140.594 29.6877C139.256 29.6877 138.409 28.8024 138.409 27.507C138.409 25.8263 139.747 24.5386 141.235 24.5386C142.485 24.5386 143.105 25.4316 143.105 26.4741" fill="#FFF8DA"/>
<path d="M144.714 24.6553L144.95 23.1816H145.67L145.434 24.6553H146.98L146.892 25.2551H145.344L144.902 28.0261C144.783 28.783 145.06 29.0475 145.503 29.0475C145.797 29.0475 146.183 28.9593 146.488 28.8214L146.39 29.4595C146.154 29.5783 145.74 29.6856 145.288 29.6856C144.609 29.6856 143.979 29.3311 144.156 28.2101L144.628 25.2532H143.781L143.869 24.6534H144.716L144.714 24.6553Z" fill="#FFF8DA"/>
<path d="M26.5321 22.6897L22.5376 25.5811L28.6661 34.0156L32.6606 31.1242L26.5321 22.6897Z" fill="#FDCE07"/>
<path d="M28.0621 18.0093L26.5332 22.6919L36.4585 25.9202L37.9874 21.2376L28.0621 18.0093Z" fill="#FDCE07"/>
<path d="M36.4696 10.1098L26.5387 13.3208L28.0594 18.006L37.9903 14.795L36.4696 10.1098Z" fill="#FDCE07"/>
<path d="M28.6945 1.99853L22.5512 10.4224L26.5407 13.3206L32.684 4.89682L28.6945 1.99853Z" fill="#FDCE07"/>
<path d="M22.5331 25.5791H17.5987V35.9981H22.5331V25.5791Z" fill="#FDCE07"/>
<path d="M22.5312 0.00195312H17.5987V10.421H22.5312V0.00195312Z" fill="#FDCE07"/>
<path d="M13.6125 22.6865L7.46918 31.1104L11.4587 34.0086L17.6019 25.5848L13.6125 22.6865Z" fill="#FDCE07"/>
<path d="M15.6096 11.8675L15.6269 11.858L15.6115 11.8714V11.8618C16.4832 6.3447 13.7875 2.63087 8.2656 1.74553V1.7417L8.25984 1.77619C7.40352 7.27412 10.0915 10.9745 15.5866 11.8656L15.6096 11.8695V11.8675Z" fill="#84C98F"/>
<path d="M12.8525 15.6604L12.8602 15.6432L12.8563 15.6623L12.8525 15.6527C10.4122 10.8849 6.22656 9.52243 1.44576 11.9408H1.44384H1.44192L1.45728 11.9696C3.89376 16.7125 8.06784 18.0711 12.8314 15.6719L12.8525 15.6623V15.6604Z" fill="#A2CA6D"/>
<path d="M12.8544 20.3438L12.8506 20.3247L12.8582 20.3419L12.8486 20.3381C8.2752 18.0174 4.26816 19.3129 1.93152 23.866H1.9296H1.92768L1.95648 23.8814C6.51456 26.1848 10.5082 24.8932 12.8429 20.363L12.8525 20.3419L12.8544 20.3438Z" fill="#C1CB4B"/>
<path d="M7.58784 9.22886L7.59552 9.2212L7.59168 9.23078V9.22503C7.15008 6.46744 5.29344 5.11836 2.53056 5.54761H2.52864L2.53248 5.56294C2.97408 8.30903 4.82688 9.65429 7.57824 9.23078H7.58976L7.58784 9.22886Z" fill="#2E8055"/>
<path d="M5.0592 18.0114V18.0018L5.06112 18.0114L5.05728 18.0075C3.45792 16.4151 1.60128 16.4112 0.00192 18.0018H0L0.0096 18.0114C1.60512 19.5962 3.45408 19.5981 5.05152 18.0171L5.0592 18.0095V18.0114Z" fill="#2E8055"/>
</g>
<defs>
<clipPath id="clip0_349_968">
<rect width="192" height="36" fill="white"/>
</clipPath>
</defs>
</svg>
