<svg width="51" height="48" viewBox="0 0 51 48" fill="none" xmlns="http://www.w3.org/2000/svg">
<g clip-path="url(#clip0_349_783)">
<path d="M35.6176 30.2534L30.2557 34.1079L38.4832 45.354L43.845 41.4995L35.6176 30.2534Z" fill="#FFFBF0"/>
<path d="M37.6717 24.0109L35.6191 30.2544L48.9433 34.5587L50.9958 28.3152L37.6717 24.0109Z" fill="#FFFBF0"/>
<path d="M51 19.7251L48.9585 13.479L35.6271 17.7606L37.6696 24.0082L51 19.7251Z" fill="#FFFBF0"/>
<path d="M38.5194 2.66697L30.2725 13.8984L35.6279 17.7626L43.8749 6.5311L38.5194 2.66697Z" fill="#FFFBF0"/>
<path d="M23.6206 47.9937L30.2435 47.9998L30.2567 34.1066L23.6328 34.1021L23.6206 47.9937Z" fill="#FFFBF0"/>
<path d="M30.2496 0.00292969H23.6267V13.8946H30.2496V0.00292969Z" fill="#FFFBF0"/>
<path d="M18.2741 30.249L10.0271 41.4805L15.3825 45.3446L23.6295 34.1131L18.2741 30.249Z" fill="#FFFBF0"/>
<path d="M20.9544 15.8247L20.9789 15.8111L20.9574 15.8293L20.9605 15.8156C22.1274 8.45875 18.5084 3.50734 11.0961 2.32687L11.0945 2.32383L11.093 2.3208L11.0854 2.36731C9.93532 9.69686 13.5436 14.6306 20.9222 15.8202L20.9539 15.8247H20.9544Z" fill="#FFFBF0"/>
<path d="M17.2543 20.8794L17.265 20.8551L17.2604 20.8809L17.2543 20.8688C13.9796 14.5124 8.35834 12.6964 1.94203 15.9189L1.93897 15.9173H1.93591L1.95733 15.9563C5.22949 22.2808 10.8303 24.0912 17.2272 20.8925L17.2543 20.8789V20.8794Z" fill="#FFFBF0"/>
<path d="M17.2559 27.1239L17.2513 27.0981L17.262 27.1224L17.2498 27.1163C11.1104 24.0233 5.73194 25.7493 2.5934 31.82L2.59034 31.8215H2.58728L2.62655 31.8412C8.74451 34.912 14.1061 33.19 17.2421 27.1512L17.2559 27.1244V27.1239Z" fill="#FFFBF0"/>
<path d="M10.1857 12.3049L10.1949 12.2943L10.1887 12.3064L10.1872 12.2988C9.59612 8.62295 7.10324 6.82317 3.39503 7.39546H3.3935L3.39197 7.39394L3.39656 7.41669C3.99071 11.0794 6.47594 12.8732 10.1694 12.3079L10.1862 12.3049H10.1857Z" fill="#FFFBF0"/>
<path d="M6.79067 24.0144L6.7922 24.0023L6.79373 24.0144L6.78914 24.0099C4.64153 21.8856 2.15018 21.8825 0.00257172 24.0023H-0.000488281L0.0132817 24.016C2.15477 26.1282 4.63847 26.1312 6.78149 24.0235L6.79067 24.0144Z" fill="#FFFBF0"/>
</g>
<defs>
<clipPath id="clip0_349_783">
<rect width="51" height="48" fill="white"/>
</clipPath>
</defs>
</svg>
