<svg width="256" height="48" viewBox="0 0 256 48" fill="none" xmlns="http://www.w3.org/2000/svg">
<g clip-path="url(#clip0_349_1020)">
<path d="M67.8861 20.9186C66.8979 20.3386 66.1299 19.5389 65.5872 18.5219C65.0419 17.5025 64.7706 16.3476 64.7706 15.0521C64.7706 13.7567 65.0445 12.6529 65.5949 11.6283C66.1453 10.6063 66.9107 9.79629 67.8938 9.20607C68.8768 8.61329 69.9853 8.31689 71.2218 8.31689C72.7066 8.31689 73.9098 8.64395 74.8365 9.29805C75.7632 9.95215 76.4314 10.8234 76.841 11.9068L74.7085 12.6478C74.1274 11.1556 73.0035 10.407 71.3344 10.407C70.5075 10.407 69.7651 10.6165 69.1098 11.0355C68.4544 11.4546 67.945 12.0192 67.5814 12.7295C67.2154 13.4399 67.0336 14.2141 67.0336 15.0521C67.0336 15.8902 67.2154 16.7206 67.5814 17.4309C67.945 18.1412 68.4595 18.6957 69.12 19.0968C69.7805 19.498 70.5331 19.6973 71.3728 19.6973C72.2125 19.6973 72.8653 19.5312 73.4029 19.1965C73.9405 18.8643 74.3424 18.4402 74.6061 17.9292C74.8723 17.4181 75.0234 16.8765 75.0618 16.3092H72.2432V14.3852H77.3043V21.5293H75.7658L75.4304 20.0652C75.1334 20.4715 74.6343 20.8624 73.9303 21.2303C73.2263 21.6008 72.3354 21.7874 71.2602 21.7874C69.9981 21.7874 68.8742 21.4986 67.8861 20.9186Z" fill="#084F38"/>
<path d="M81.7536 8.57471H79.529V21.529H81.7536V8.57471Z" fill="#084F38"/>
<path d="M90.2272 18.9282C90.7213 18.3916 90.9696 17.7171 90.9696 16.902C90.9696 16.0869 90.7238 15.4175 90.2272 14.886C89.7331 14.3546 89.1136 14.0888 88.3738 14.0888C87.6339 14.0888 87.0016 14.3546 86.5203 14.886C86.0365 15.4175 85.7958 16.0869 85.7958 16.902C85.7958 17.7171 86.0365 18.407 86.5203 18.9384C87.0016 19.4699 87.6186 19.7356 88.3738 19.7356C89.129 19.7356 89.7357 19.4673 90.2272 18.9308M85.9059 21.1384C85.1763 20.7065 84.6029 20.1189 84.1907 19.3728C83.776 18.6267 83.5686 17.804 83.5686 16.902C83.5686 16.0001 83.776 15.1799 84.1907 14.4415C84.6029 13.7005 85.1789 13.1154 85.9136 12.6835C86.6509 12.2517 87.4675 12.0371 88.3712 12.0371C89.2749 12.0371 90.1094 12.2517 90.839 12.6835C91.5686 13.1154 92.1421 13.7005 92.5619 14.4415C92.9818 15.1799 93.1917 16.0026 93.1917 16.902C93.1917 17.8014 92.9818 18.6267 92.5619 19.3728C92.1421 20.1189 91.5661 20.7091 90.839 21.1384C90.1094 21.5702 89.2877 21.7848 88.3712 21.7848C87.4547 21.7848 86.633 21.5676 85.9059 21.1384Z" fill="#084F38"/>
<path d="M101.622 18.9743C102.111 18.4301 102.354 17.7402 102.354 16.9021C102.354 16.0641 102.111 15.3921 101.622 14.8478C101.133 14.3036 100.518 14.0328 99.776 14.0328C99.0336 14.0328 98.4269 14.301 97.9507 14.8376C97.4746 15.3742 97.2365 16.0615 97.2365 16.9021C97.2365 17.7428 97.472 18.4326 97.9507 18.9743C98.4269 19.516 99.0336 19.7868 99.776 19.7868C100.518 19.7868 101.133 19.516 101.622 18.9743ZM98.3117 21.3812C97.8176 21.1104 97.4285 20.7833 97.1443 20.4001L96.8474 21.5294H95.0118V8.57764H97.239V13.3327C97.5232 12.9622 97.9098 12.6556 98.3962 12.4077C98.8851 12.1624 99.4586 12.0372 100.111 12.0372C100.977 12.0372 101.75 12.2544 102.428 12.6837C103.107 13.1155 103.636 13.7032 104.013 14.4441C104.389 15.1826 104.579 16.0053 104.579 16.9047C104.579 17.8041 104.384 18.6089 103.995 19.3576C103.606 20.1037 103.068 20.6964 102.382 21.1359C101.696 21.5728 100.933 21.7926 100.093 21.7926C99.4022 21.7926 98.8058 21.6572 98.3117 21.3863" fill="#084F38"/>
<path d="M111.048 19.5386C111.409 19.2371 111.585 18.8206 111.585 18.2892V17.216L109.75 17.492C109.169 17.5788 108.746 17.7245 108.48 17.9289C108.216 18.1307 108.083 18.4246 108.083 18.8078C108.083 19.1656 108.227 19.4517 108.518 19.6689C108.808 19.8835 109.207 19.9909 109.714 19.9909C110.221 19.9909 110.689 19.8401 111.048 19.5361M107.525 21.4345C107.044 21.1994 106.66 20.8673 106.376 20.4354C106.092 20.0036 105.951 19.5028 105.951 18.9356C105.951 18.1589 106.22 17.4996 106.757 16.9656C107.295 16.4291 108.242 16.0688 109.604 15.8848L111.588 15.6063V15.4939C111.588 14.3722 111.02 13.8101 109.883 13.8101C109.315 13.8101 108.884 13.9353 108.593 14.1882C108.303 14.4412 108.119 14.8142 108.047 15.3099L106.081 14.827C106.342 13.8893 106.78 13.1892 107.397 12.7267C108.014 12.2643 108.867 12.0317 109.957 12.0317C111.048 12.0317 111.99 12.3179 112.719 12.8928C113.449 13.4677 113.812 14.3211 113.812 15.4556V21.5265H111.941L111.7 20.6935C111.181 21.4217 110.321 21.7845 109.123 21.7845C108.539 21.7845 108.009 21.667 107.528 21.4319" fill="#084F38"/>
<path d="M118.075 8.57471H115.85V21.529H118.075V8.57471Z" fill="#084F38"/>
<path d="M125.732 8.57471H133.891V10.6086H127.995V14.0145H133.112V15.9947H127.995V19.4926H133.891V21.529H125.732V8.57471Z" fill="#084F38"/>
<path d="M135.836 12.2952H137.672L137.987 13.4066C138.678 12.4945 139.617 12.0371 140.805 12.0371C141.88 12.0371 142.702 12.3565 143.27 12.9978C143.839 13.6392 144.123 14.6203 144.123 15.9387V21.5293H141.898V16.2377C141.898 14.8068 141.299 14.0914 140.099 14.0914C139.505 14.0914 139.016 14.2984 138.634 14.7097C138.25 15.1237 138.058 15.7062 138.058 16.46V21.5293H135.834V12.2952H135.836Z" fill="#084F38"/>
<path d="M152.709 14.9957C152.525 14.6763 152.256 14.408 151.903 14.1908C151.549 13.9736 151.127 13.8663 150.633 13.8663C149.929 13.8663 149.356 14.0682 148.918 14.4693C148.477 14.8705 148.204 15.3611 148.091 15.9411H153.024C152.998 15.6319 152.893 15.3176 152.709 14.9957ZM148.073 17.6428C148.111 18.0388 148.239 18.4144 148.462 18.7721C148.685 19.1324 148.984 19.4185 149.361 19.6332C149.737 19.8504 150.162 19.9577 150.63 19.9577C151.224 19.9577 151.716 19.8146 152.105 19.531C152.494 19.2474 152.758 18.9203 152.893 18.5524L154.765 19.1273C154.481 19.9168 153.989 20.5581 153.29 21.0513C152.591 21.5444 151.703 21.7897 150.628 21.7897C149.75 21.7897 148.956 21.5802 148.244 21.1611C147.533 20.7421 146.972 20.1621 146.557 19.4237C146.143 18.6827 145.935 17.8446 145.935 16.9069C145.935 15.9692 146.143 15.1669 146.557 14.4285C146.972 13.6875 147.535 13.1049 148.244 12.6808C148.956 12.2541 149.745 12.042 150.61 12.042C151.475 12.042 152.256 12.2413 152.916 12.6424C153.577 13.0436 154.086 13.6032 154.445 14.3186C154.806 15.034 154.982 15.8593 154.982 16.797V17.6479H148.065L148.073 17.6428Z" fill="#084F38"/>
<path d="M156.808 12.2952H158.643L158.958 13.3683C159.181 12.9876 159.491 12.6682 159.885 12.4153C160.279 12.1623 160.75 12.0371 161.293 12.0371C161.638 12.0371 161.948 12.078 162.22 12.1674C162.491 12.2543 162.714 12.3591 162.885 12.4817L162.089 14.4236C161.976 14.3367 161.825 14.2652 161.633 14.2038C161.441 14.1425 161.221 14.1118 160.975 14.1118C160.417 14.1118 159.954 14.3239 159.585 14.7506C159.214 15.1748 159.027 15.7599 159.027 16.4983V21.5318H156.803V12.2977L156.808 12.2952Z" fill="#084F38"/>
<path d="M169.738 18.7137C170.202 18.2206 170.435 17.5664 170.435 16.7539C170.435 15.9414 170.202 15.2669 169.738 14.7737C169.275 14.2806 168.678 14.0328 167.949 14.0328C167.219 14.0328 166.623 14.278 166.159 14.7737C165.696 15.2669 165.463 15.9286 165.463 16.7539C165.463 17.5792 165.699 18.2206 166.167 18.7137C166.638 19.2068 167.237 19.4547 167.967 19.4547C168.696 19.4547 169.275 19.2094 169.738 18.7137ZM165.084 24.6747C164.372 24.133 163.896 23.4048 163.645 22.4901L165.722 22.0276C165.834 22.5208 166.07 22.9091 166.436 23.1851C166.799 23.4636 167.299 23.6016 167.928 23.6016C168.719 23.6016 169.334 23.3946 169.772 22.9807C170.212 22.5668 170.432 21.9765 170.432 21.2126V20.0832C170.209 20.4665 169.853 20.7884 169.367 21.0542C168.878 21.3199 168.305 21.4527 167.652 21.4527C166.799 21.4527 166.039 21.2483 165.371 20.8421C164.703 20.4358 164.18 19.8737 163.804 19.1583C163.425 18.4428 163.238 17.6405 163.238 16.7539C163.238 15.8673 163.425 15.0778 163.804 14.3572C164.18 13.6342 164.708 13.0695 165.381 12.653C166.054 12.2391 166.804 12.0347 167.634 12.0347C168.312 12.0347 168.891 12.1701 169.367 12.4409C169.843 12.7118 170.199 13.0337 170.432 13.4016L170.839 12.2902H172.657V21.1742C172.657 22.4824 172.239 23.5275 171.405 24.3119C170.57 25.0938 169.413 25.4872 167.928 25.4872C166.74 25.4872 165.793 25.2164 165.082 24.6722" fill="#084F38"/>
<path d="M183.34 12.2949V21.179C183.34 22.4872 182.95 23.5322 182.172 24.3166C181.394 25.0985 180.311 25.492 178.926 25.492C177.812 25.492 176.922 25.2237 176.246 24.6871C175.572 24.1506 175.119 23.4377 174.884 22.5485L176.96 22.1244C177.157 23.1004 177.812 23.5859 178.924 23.5859C179.604 23.5859 180.137 23.3789 180.529 22.965C180.918 22.5511 181.112 21.9634 181.112 21.1994V20.2183L181.094 20.1621C180.749 20.5811 180.357 20.9005 179.924 21.1151C179.492 21.3297 178.949 21.437 178.294 21.437C177.242 21.437 176.417 21.1177 175.818 20.4738C175.219 19.835 174.92 18.859 174.92 17.5508V12.2949H177.144V17.1803C177.144 17.9698 177.303 18.5319 177.626 18.8641C177.946 19.1988 178.404 19.3649 178.998 19.3649C179.628 19.3649 180.137 19.1605 180.526 18.7542C180.915 18.3479 181.11 17.7679 181.11 17.0142V12.2949H183.334H183.34Z" fill="#084F38"/>
<path d="M197.911 16.5876L196.022 11.4978L194.13 16.5876H197.914H197.911ZM198.671 18.6215H193.37L192.294 21.5266H189.978L194.834 8.57227H197.207L202.063 21.5266H199.747L198.671 18.6215Z" fill="#084F38"/>
<path d="M205.737 8.57471H203.512V21.529H205.737V8.57471Z" fill="#084F38"/>
<path d="M210.186 8.57471H207.962V21.529H210.186V8.57471Z" fill="#084F38"/>
<path d="M212.483 12.2924H214.707V21.5265H212.483V12.2924ZM212.641 10.647C212.388 10.3863 212.26 10.0797 212.26 9.72201C212.26 9.3643 212.385 9.05513 212.641 8.79707C212.895 8.539 213.199 8.40869 213.56 8.40869C213.921 8.40869 214.231 8.539 214.497 8.79707C214.761 9.05513 214.897 9.3643 214.897 9.72201C214.897 10.0797 214.764 10.3863 214.497 10.647C214.231 10.905 213.919 11.0353 213.56 11.0353C213.202 11.0353 212.895 10.905 212.641 10.647Z" fill="#084F38"/>
<path d="M221.66 19.5386C222.019 19.2371 222.198 18.8206 222.198 18.2892V17.216L220.362 17.492C219.781 17.5788 219.359 17.7245 219.092 17.9289C218.829 18.1307 218.696 18.4246 218.696 18.8078C218.696 19.1656 218.839 19.4517 219.131 19.6689C219.42 19.8835 219.82 19.9909 220.326 19.9909C220.833 19.9909 221.302 19.8401 221.66 19.5361M218.14 21.4345C217.659 21.1994 217.275 20.8673 216.991 20.4354C216.707 20.0036 216.566 19.5028 216.566 18.9356C216.566 18.1589 216.835 17.4996 217.372 16.9656C217.91 16.4316 218.857 16.0688 220.219 15.8848L222.203 15.6063V15.4939C222.203 14.3722 221.635 13.8101 220.498 13.8101C219.93 13.8101 219.5 13.9353 219.208 14.1882C218.918 14.4412 218.734 14.8142 218.662 15.3099L216.696 14.827C216.957 13.8893 217.395 13.1892 218.012 12.7267C218.629 12.2643 219.482 12.0317 220.572 12.0317C221.663 12.0317 222.605 12.3179 223.334 12.8928C224.064 13.4677 224.428 14.3211 224.428 15.4556V21.5265H222.556L222.313 20.6935C221.796 21.4217 220.936 21.7845 219.735 21.7845C219.154 21.7845 218.621 21.667 218.14 21.4319" fill="#084F38"/>
<path d="M226.463 12.2952H228.298L228.613 13.4066C229.304 12.4945 230.244 12.0371 231.432 12.0371C232.507 12.0371 233.329 12.3565 233.897 12.9978C234.465 13.6392 234.749 14.6203 234.749 15.9387V21.5293H232.525V16.2377C232.525 14.8068 231.926 14.0914 230.725 14.0914C230.131 14.0914 229.645 14.2984 229.261 14.7097C228.877 15.1237 228.685 15.7062 228.685 16.46V21.5293H226.46V12.2952H226.463Z" fill="#084F38"/>
<path d="M238.886 21.1487C238.157 20.7245 237.588 20.1369 237.181 19.3908C236.774 18.6447 236.57 17.8143 236.57 16.9021C236.57 15.99 236.774 15.18 237.181 14.4313C237.588 13.6853 238.157 13.0976 238.886 12.6709C239.616 12.2467 240.438 12.0347 241.352 12.0347C242.365 12.0347 243.244 12.2978 243.983 12.8293C244.726 13.3608 245.238 14.0634 245.522 14.9373L243.5 15.622C243.325 15.1417 243.057 14.7661 242.683 14.4927C242.312 14.2218 241.866 14.0864 241.347 14.0864C240.591 14.0864 239.98 14.347 239.503 14.8734C239.027 15.3972 238.789 16.0743 238.789 16.8996C238.789 17.7249 239.027 18.4045 239.503 18.936C239.98 19.4674 240.594 19.7332 241.347 19.7332C241.841 19.7332 242.271 19.608 242.637 19.3525C243 19.0995 243.269 18.7392 243.443 18.2717L245.466 18.9564C245.143 19.82 244.621 20.5074 243.899 21.0209C243.177 21.532 242.327 21.7875 241.349 21.7875C240.435 21.7875 239.611 21.5754 238.884 21.1487" fill="#084F38"/>
<path d="M253.719 14.9957C253.535 14.6763 253.266 14.408 252.913 14.1908C252.559 13.9736 252.137 13.8663 251.643 13.8663C250.939 13.8663 250.365 14.0682 249.928 14.4693C249.487 14.8705 249.213 15.3611 249.101 15.9411H254.034C254.008 15.6319 253.903 15.3176 253.719 14.9957ZM249.083 17.6428C249.121 18.0388 249.249 18.4144 249.472 18.7721C249.695 19.1324 249.994 19.4185 250.371 19.6332C250.749 19.8504 251.172 19.9577 251.64 19.9577C252.234 19.9577 252.726 19.8146 253.115 19.531C253.504 19.2474 253.768 18.9203 253.903 18.5524L255.775 19.1273C255.491 19.9168 254.999 20.5581 254.3 21.0513C253.601 21.5444 252.713 21.7897 251.638 21.7897C250.76 21.7897 249.966 21.5802 249.254 21.1611C248.543 20.7421 247.982 20.1621 247.567 19.4237C247.153 18.6827 246.945 17.8446 246.945 16.9069C246.945 15.9692 247.153 15.1669 247.567 14.4285C247.982 13.6875 248.545 13.1049 249.254 12.6808C249.966 12.2541 250.755 12.042 251.62 12.042C252.485 12.042 253.266 12.2413 253.926 12.6424C254.587 13.0436 255.096 13.6032 255.455 14.3186C255.816 15.034 255.992 15.8593 255.992 16.797V17.6479H249.075L249.083 17.6428Z" fill="#084F38"/>
<path d="M66.3782 32.8737L66.5088 32.0867C66.7187 30.7095 67.7043 29.8306 69.1226 29.8306C69.4758 29.8306 69.7779 29.8842 69.8854 29.9098L69.7549 30.7606C69.6499 30.7325 69.399 30.6814 69.0842 30.6814C68.1651 30.6814 67.5482 31.1924 67.4022 32.148L67.2845 32.8686H69.1098L68.992 33.6683H67.1923L65.8125 42.3045H64.8525L66.2323 33.6683H65.2083L65.3261 32.8686H66.3757L66.3782 32.8737Z" fill="#21614C"/>
<path d="M74.8186 35.7431C74.8186 34.4835 74.0301 33.5815 72.7962 33.5815C71.2474 33.5815 69.9597 34.8642 69.9597 36.5556C69.9597 37.8153 70.7482 38.7198 71.9821 38.7198C73.5309 38.7198 74.8186 37.4346 74.8186 35.7457M75.776 35.6384C75.776 37.8664 73.9917 39.5809 71.8362 39.5809C70.1287 39.5809 68.9997 38.3493 68.9997 36.6578C68.9997 34.4324 70.7994 32.7153 72.9242 32.7153C74.6445 32.7153 75.7735 33.9469 75.7735 35.6384" fill="#21614C"/>
<path d="M77.824 32.8736H78.743L78.5843 33.8829C78.5562 34.1435 78.4794 34.3556 78.4794 34.3811H78.5075C79.0195 33.423 79.8336 32.7178 80.8192 32.7178C81.0035 32.7178 81.1725 32.7459 81.2109 32.7587L81.0547 33.7015C81.0163 33.6887 80.896 33.6606 80.7399 33.6606C79.3626 33.6606 78.4282 35.2473 78.2208 36.5428L77.76 39.4249H76.7898L77.8266 32.8736H77.824Z" fill="#21614C"/>
<path d="M90.9798 35.7047C90.9798 34.4859 90.2963 33.5814 89.1418 33.5814C87.9872 33.5814 86.4614 34.5242 86.4614 36.6194C86.4614 38.0758 87.3958 38.7171 88.3251 38.7171C89.8355 38.7171 90.9773 37.3936 90.9773 35.7047M86.057 32.8736H86.9632L86.8582 33.6478C86.8045 33.9366 86.7405 34.1461 86.7405 34.1461H86.7686C87.2422 33.4128 88.2918 32.7178 89.3824 32.7178C90.9184 32.7178 91.9424 33.9238 91.9424 35.5999C91.9424 37.8816 90.2605 39.5833 88.3046 39.5833C87.2141 39.5833 86.4154 38.9011 86.1645 38.1806H86.1363C86.1363 38.1806 86.1491 38.3901 86.0979 38.7044L85.5194 42.3096H84.5619L86.057 32.8762V32.8736Z" fill="#21614C"/>
<path d="M96.6451 33.5558C95.3984 33.5558 94.4793 34.5396 94.1901 35.5871H98.2861C98.4704 34.5396 97.9456 33.5558 96.6451 33.5558ZM99.2819 35.2984C99.2819 35.743 99.1641 36.0982 99.1385 36.2949H94.0569L94.0441 36.3486C93.847 37.7769 94.6611 38.7197 96.1177 38.7197C96.9958 38.7197 97.9558 38.4693 98.6265 38.063L98.4832 38.9803C97.879 39.3074 96.96 39.5833 95.936 39.5833C94.1517 39.5833 93.0227 38.4029 93.0227 36.6756C93.0227 34.4348 94.807 32.7178 96.791 32.7178C98.4576 32.7178 99.2845 33.9084 99.2845 35.2984" fill="#21614C"/>
<path d="M106.102 35.7431C106.102 34.4835 105.313 33.5815 104.079 33.5815C102.531 33.5815 101.243 34.8642 101.243 36.5556C101.243 37.8153 102.031 38.7198 103.265 38.7198C104.814 38.7198 106.102 37.4346 106.102 35.7457M107.062 35.6384C107.062 37.8664 105.277 39.5809 103.122 39.5809C101.414 39.5809 100.285 38.3493 100.285 36.6578C100.285 34.4324 102.085 32.7153 104.21 32.7153C105.93 32.7153 107.059 33.9469 107.059 35.6384" fill="#21614C"/>
<path d="M114.081 35.7047C114.081 34.4859 113.398 33.5814 112.243 33.5814C111.089 33.5814 109.565 34.5242 109.565 36.6194C109.565 38.0758 110.497 38.7171 111.429 38.7171C112.94 38.7171 114.081 37.3936 114.081 35.7047ZM109.158 32.8736H110.065L109.96 33.6478C109.906 33.9366 109.842 34.1461 109.842 34.1461H109.868C110.341 33.4128 111.391 32.7178 112.481 32.7178C114.017 32.7178 115.041 33.9238 115.041 35.5999C115.041 37.8816 113.359 39.5833 111.404 39.5833C110.313 39.5833 109.514 38.9011 109.263 38.1806H109.235C109.235 38.1806 109.248 38.3901 109.197 38.7044L108.618 42.3096H107.661L109.156 32.8762L109.158 32.8736Z" fill="#21614C"/>
<path d="M117.601 29.9917H118.574L117.366 37.6314C117.248 38.3775 117.404 38.7199 117.996 38.7199C118.272 38.7199 118.495 38.6662 118.546 38.6535L118.415 39.4941C118.362 39.5069 118.075 39.5861 117.64 39.5861C116.721 39.5861 116.155 39.1006 116.352 37.8307L117.599 29.9943L117.601 29.9917Z" fill="#21614C"/>
<path d="M123.059 33.5558C121.812 33.5558 120.893 34.5396 120.604 35.5871H124.7C124.884 34.5396 124.36 33.5558 123.059 33.5558ZM125.699 35.2984C125.699 35.743 125.581 36.0982 125.555 36.2949H120.476L120.463 36.3486C120.266 37.7769 121.08 38.7197 122.537 38.7197C123.415 38.7197 124.375 38.4693 125.046 38.063L124.902 38.9803C124.298 39.3074 123.379 39.5833 122.355 39.5833C120.571 39.5833 119.442 38.4029 119.442 36.6756C119.442 34.4348 121.226 32.7178 123.21 32.7178C124.877 32.7178 125.704 33.9084 125.704 35.2984" fill="#21614C"/>
<path d="M131.121 36.5939C131.121 37.8126 131.804 38.7171 132.972 38.7171C134.139 38.7171 135.636 37.7743 135.636 35.6766C135.636 34.2227 134.717 33.5814 133.786 33.5814C132.275 33.5814 131.121 34.9049 131.121 36.5939ZM136.044 39.4249H135.137L135.255 38.5996C135.306 38.2981 135.373 38.1014 135.373 38.1014H135.347C134.874 38.8628 133.811 39.5833 132.721 39.5833C131.185 39.5833 130.161 38.3773 130.161 36.7012C130.161 34.4195 131.843 32.7178 133.798 32.7178C134.889 32.7178 135.741 33.4128 135.977 34.1461H136.005C136.005 34.1461 135.977 33.9366 136.044 33.6478L136.174 32.8736H137.08L136.044 39.4249Z" fill="#21614C"/>
<path d="M140.104 32.8738L139.96 33.883C139.922 34.1692 139.843 34.3813 139.83 34.394H139.855C140.183 33.791 141.248 32.7153 142.73 32.7153C144.384 32.7153 144.794 33.699 144.543 35.2985L143.887 39.425H142.927L143.544 35.5208C143.703 34.5243 143.688 33.6198 142.454 33.6198C141.064 33.6198 139.868 34.7466 139.633 36.2133L139.121 39.4225H138.148L139.185 32.8712H140.104V32.8738Z" fill="#21614C"/>
<path d="M146.796 36.5939C146.796 37.8127 147.479 38.7172 148.646 38.7172C149.814 38.7172 151.311 37.7744 151.311 35.6767C151.311 34.2228 150.392 33.5815 149.46 33.5815C147.95 33.5815 146.796 34.905 146.796 36.5939ZM151.718 39.425H150.812L150.93 38.5997C150.981 38.2982 151.048 38.1015 151.048 38.1015H151.022C150.548 38.8629 149.486 39.5834 148.396 39.5834C146.86 39.5834 145.836 38.3774 145.836 36.7013C145.836 34.4196 147.517 32.7179 149.473 32.7179C150.564 32.7179 151.363 33.372 151.626 34.0695H151.652C151.652 34.0695 151.639 33.86 151.693 33.5329L152.256 29.9941H153.213L151.718 39.4275V39.425Z" fill="#21614C"/>
<path d="M163.51 35.7047C163.51 34.4859 162.826 33.5814 161.672 33.5814C160.517 33.5814 158.991 34.5242 158.991 36.6194C158.991 38.0758 159.926 38.7171 160.855 38.7171C162.365 38.7171 163.507 37.3936 163.507 35.7047M158.584 32.8736H159.491L159.386 33.6478C159.332 33.9366 159.268 34.1461 159.268 34.1461H159.296C159.77 33.4128 160.819 32.7178 161.91 32.7178C163.446 32.7178 164.47 33.9238 164.47 35.5999C164.47 37.8816 162.788 39.5833 160.832 39.5833C159.741 39.5833 158.943 38.9011 158.692 38.1806H158.664C158.664 38.1806 158.676 38.3901 158.625 38.7044L158.049 42.3096H157.089L158.584 32.8762V32.8736Z" fill="#21614C"/>
<path d="M167.027 29.9917H167.997L166.789 37.6314C166.671 38.3775 166.827 38.7199 167.419 38.7199C167.695 38.7199 167.918 38.6662 167.969 38.6535L167.839 39.4941C167.785 39.5069 167.498 39.5861 167.063 39.5861C166.144 39.5861 165.578 39.1006 165.775 37.8307L167.022 29.9943L167.027 29.9917Z" fill="#21614C"/>
<path d="M169.815 36.5939C169.815 37.8126 170.499 38.7171 171.666 38.7171C172.833 38.7171 174.331 37.7743 174.331 35.6766C174.331 34.2227 173.412 33.5814 172.48 33.5814C170.97 33.5814 169.815 34.9049 169.815 36.5939ZM174.738 39.4249H173.832L173.949 38.5996C174.001 38.2981 174.067 38.1014 174.067 38.1014H174.039C173.568 38.8628 172.503 39.5833 171.415 39.5833C169.879 39.5833 168.855 38.3773 168.855 36.7012C168.855 34.4195 170.537 32.7178 172.493 32.7178C173.583 32.7178 174.436 33.4128 174.671 34.1461H174.7C174.7 34.1461 174.671 33.9366 174.738 33.6478L174.868 32.8736H175.775L174.738 39.4249Z" fill="#21614C"/>
<path d="M178.798 32.8738L178.655 33.883C178.616 34.1692 178.537 34.3813 178.524 34.394H178.55C178.877 33.791 179.942 32.7153 181.425 32.7153C183.081 32.7153 183.488 33.699 183.237 35.2985L182.582 39.425H181.622L182.239 35.5208C182.397 34.5243 182.382 33.6198 181.148 33.6198C179.758 33.6198 178.563 34.7466 178.327 36.2133L177.815 39.4225H176.842L177.879 32.8712H178.798V32.8738Z" fill="#21614C"/>
<path d="M188.163 33.5558C186.916 33.5558 185.997 34.5396 185.708 35.5871H189.804C189.988 34.5396 189.463 33.5558 188.163 33.5558ZM190.802 35.2984C190.802 35.743 190.684 36.0982 190.659 36.2949H185.58L185.567 36.3486C185.37 37.7769 186.184 38.7197 187.64 38.7197C188.518 38.7197 189.478 38.4693 190.149 38.063L190.006 38.9803C189.402 39.3074 188.483 39.5833 187.459 39.5833C185.674 39.5833 184.545 38.4029 184.545 36.6756C184.545 34.4348 186.33 32.7178 188.314 32.7178C189.98 32.7178 190.807 33.9084 190.807 35.2984" fill="#21614C"/>
<path d="M192.952 32.874L193.267 30.9092H194.227L193.912 32.874H195.973L195.855 33.6738H193.792L193.203 37.3685C193.044 38.3777 193.413 38.7303 194.004 38.7303C194.396 38.7303 194.911 38.6128 195.318 38.4288L195.187 39.2797C194.872 39.4381 194.319 39.5812 193.718 39.5812C192.811 39.5812 191.972 39.1085 192.207 37.6137L192.837 33.6712H191.708L191.826 32.8715H192.955L192.952 32.874Z" fill="#21614C"/>
<path d="M35.3761 30.2528L30.0501 34.1079L38.2215 45.3539L43.5475 41.4988L35.3761 30.2528Z" fill="#2E8055"/>
<path d="M37.4161 24.0119L35.3776 30.2554L48.6113 34.5598L50.6498 28.3164L37.4161 24.0119Z" fill="#2E8055"/>
<path d="M48.6261 13.4799L35.3849 17.7612L37.4125 24.0082L50.6537 19.7269L48.6261 13.4799Z" fill="#2E8055"/>
<path d="M38.2593 2.66471L30.0682 13.8965L35.3875 17.7609L43.5786 6.52909L38.2593 2.66471Z" fill="#2E8055"/>
<path d="M30.0442 34.1055H23.465V47.9975H30.0442V34.1055Z" fill="#2E8055"/>
<path d="M30.0416 0.00244141H23.465V13.8945H30.0416V0.00244141Z" fill="#2E8055"/>
<path d="M18.15 30.2492L9.95892 41.481L15.2782 45.3453L23.4693 34.1136L18.15 30.2492Z" fill="#2E8055"/>
<path d="M20.8128 15.8239L20.8358 15.8111L20.8154 15.829V15.8162C21.9776 8.46009 18.3834 3.50832 11.0208 2.32786V2.32275L11.0131 2.36875C9.87137 9.69931 13.4554 14.6332 20.7821 15.8213L20.8128 15.8264V15.8239Z" fill="#84C98F"/>
<path d="M17.1366 20.88L17.1469 20.8571L17.1417 20.8826L17.1366 20.8698C13.8829 14.5128 8.30207 12.6961 1.92767 15.9206H1.92511H1.92255L1.94303 15.9589C5.19167 22.2828 10.7571 24.0944 17.1085 20.8954L17.1366 20.8826V20.88Z" fill="#67B17C"/>
<path d="M17.1392 27.125L17.1341 27.0994L17.1443 27.1224L17.1315 27.1173C11.0336 24.0231 5.69089 25.7503 2.57537 31.8212H2.57281H2.57025L2.60865 31.8417C8.68609 34.9129 14.0109 33.1908 17.1239 27.1505L17.1367 27.1224L17.1392 27.125Z" fill="#4B9968"/>
<path d="M10.1171 12.3053L10.1274 12.2951L10.1222 12.3079V12.3002C9.53344 8.62342 7.05792 6.82464 3.37408 7.39698H3.37152L3.37664 7.41742C3.96544 11.0789 6.43584 12.8725 10.1043 12.3079H10.1197L10.1171 12.3053Z" fill="#76BD85"/>
<path d="M6.7456 24.0155V24.0027L6.74816 24.0155L6.74304 24.0104C4.61056 21.8871 2.13504 21.882 0.00256 24.0027H0L0.0128 24.0155C2.14016 26.1286 4.60544 26.1311 6.73536 24.0232L6.7456 24.0129V24.0155Z" fill="#59A572"/>
</g>
<defs>
<clipPath id="clip0_349_1020">
<rect width="256" height="48" fill="white"/>
</clipPath>
</defs>
</svg>
