<svg width="38" height="36" viewBox="0 0 38 36" fill="none" xmlns="http://www.w3.org/2000/svg">
<g clip-path="url(#clip0_362_1427)">
<path d="M26.5321 22.6897L22.5376 25.5811L28.6661 34.0156L32.6606 31.1242L26.5321 22.6897Z" fill="#FDCE07"/>
<path d="M28.0621 18.0093L26.5332 22.6919L36.4585 25.9202L37.9874 21.2376L28.0621 18.0093Z" fill="#FDCE07"/>
<path d="M36.4696 10.1098L26.5387 13.3208L28.0594 18.006L37.9903 14.795L36.4696 10.1098Z" fill="#FDCE07"/>
<path d="M28.6945 1.99853L22.5512 10.4224L26.5407 13.3206L32.684 4.89682L28.6945 1.99853Z" fill="#FDCE07"/>
<path d="M22.5331 25.5791H17.5987V35.9981H22.5331V25.5791Z" fill="#FDCE07"/>
<path d="M22.5312 0.00195312H17.5987V10.421H22.5312V0.00195312Z" fill="#FDCE07"/>
<path d="M13.6125 22.6865L7.46918 31.1104L11.4587 34.0086L17.6019 25.5848L13.6125 22.6865Z" fill="#FDCE07"/>
<path d="M15.6096 11.8675L15.6269 11.858L15.6115 11.8714V11.8618C16.4832 6.3447 13.7875 2.63087 8.2656 1.74553V1.7417L8.25984 1.77619C7.40352 7.27412 10.0915 10.9745 15.5866 11.8656L15.6096 11.8695V11.8675Z" fill="#84C98F"/>
<path d="M12.8525 15.6604L12.8602 15.6432L12.8563 15.6623L12.8525 15.6527C10.4122 10.8849 6.22657 9.52243 1.44577 11.9408H1.44385H1.44193L1.45729 11.9696C3.89376 16.7125 8.06785 18.0711 12.8314 15.6719L12.8525 15.6623V15.6604Z" fill="#A2CA6D"/>
<path d="M12.8544 20.3438L12.8506 20.3247L12.8582 20.3419L12.8486 20.3381C8.27519 18.0174 4.26815 19.3129 1.93151 23.866H1.92959H1.92767L1.95647 23.8814C6.51455 26.1848 10.5082 24.8932 12.8429 20.363L12.8525 20.3419L12.8544 20.3438Z" fill="#C1CB4B"/>
<path d="M7.58784 9.22886L7.59552 9.2212L7.59168 9.23078V9.22503C7.15008 6.46744 5.29344 5.11836 2.53056 5.54761H2.52864L2.53248 5.56294C2.97408 8.30903 4.82688 9.65429 7.57824 9.23078H7.58976L7.58784 9.22886Z" fill="#2E8055"/>
<path d="M5.0592 18.0114V18.0018L5.06112 18.0114L5.05728 18.0075C3.45792 16.4151 1.60128 16.4112 0.00192 18.0018H0L0.0096 18.0114C1.60512 19.5962 3.45408 19.5981 5.05152 18.0171L5.0592 18.0095V18.0114Z" fill="#2E8055"/>
</g>
<defs>
<clipPath id="clip0_362_1427">
<rect width="38" height="36" fill="white"/>
</clipPath>
</defs>
</svg>
