<svg width="36" height="36" viewBox="0 0 36 36" fill="none" xmlns="http://www.w3.org/2000/svg">
<g clip-path="url(#clip0_362_1418)">
<path d="M36.0637 0.100098H0.1008V35.8994H36.0637V0.100098Z" fill="#F7E82E"/>
<path fill-rule="evenodd" clip-rule="evenodd" d="M7.35083 13.0736C8.31497 12.544 9.66523 12.1265 10.7466 12.1265C12.8116 12.1265 13.2897 13.0736 14.3044 13.0736C15.3191 13.0736 16.3614 12.1265 18.238 12.1265C19.9456 12.1265 20.8477 13.0736 22.3646 13.0736C23.8849 13.0736 23.5689 12.1265 25.7086 12.1265C27.838 12.1265 28.8125 13.0736 28.8125 13.0736V15.4885C28.8125 15.4885 27.676 14.4807 25.889 14.4567C24.1159 14.4361 24.163 15.4885 22.3692 15.4885C20.5742 15.4885 20.4305 14.4567 18.323 14.4567C16.2166 14.4567 15.8983 15.4885 14.2711 15.4885C12.6393 15.4885 12.3336 14.4143 10.634 14.4361C8.93437 14.4567 7.35083 15.4885 7.35083 15.4885V13.0736Z" fill="#28A8E0"/>
<path fill-rule="evenodd" clip-rule="evenodd" d="M7.35083 18.7048C8.31497 18.174 9.66523 17.7588 10.7466 17.7588C12.8116 17.7588 13.2897 18.7048 14.3044 18.7048C15.3191 18.7048 16.3614 17.7588 18.238 17.7588C19.9456 17.7588 20.8477 18.7048 22.3646 18.7048C23.8849 18.7048 23.5689 17.7588 25.7086 17.7588C27.838 17.7588 28.8125 18.7048 28.8125 18.7048V21.1208C28.8125 21.1208 27.676 20.1061 25.889 20.0878C24.1159 20.0707 24.163 21.1208 22.3692 21.1208C20.5742 21.1208 20.4305 20.0878 18.323 20.0878C16.2166 20.0878 15.8983 21.1208 14.2711 21.1208C12.6393 21.1208 12.3336 20.0489 10.634 20.0707C8.93437 20.0878 7.35083 21.1208 7.35083 21.1208V18.7048Z" fill="#28A8E0"/>
<path fill-rule="evenodd" clip-rule="evenodd" d="M7.35083 24.3319C8.31497 23.7989 9.66523 23.3848 10.7466 23.3848C12.8116 23.3848 13.2897 24.3319 14.3044 24.3319C15.3191 24.3319 16.3614 23.3848 18.238 23.3848C19.9456 23.3848 20.8477 24.3319 22.3646 24.3319C23.8849 24.3319 23.5689 23.3848 25.7086 23.3848C27.838 23.3848 28.8125 24.3319 28.8125 24.3319V26.7548C28.8125 26.7548 27.676 25.739 25.889 25.7172C24.1159 25.6989 24.163 26.7548 22.3692 26.7548C20.5742 26.7548 20.4305 25.7172 18.323 25.7172C16.2166 25.7172 15.8983 26.7548 14.2711 26.7548C12.6393 26.7548 12.3336 25.6795 10.634 25.6989C8.93437 25.7172 7.35083 26.7548 7.35083 26.7548V24.3319Z" fill="#28A8E0"/>
<path fill-rule="evenodd" clip-rule="evenodd" d="M17.0647 32.1427L19.787 18.5265L10.1146 22.7613L15.7673 4.88281H20.3719L15.0054 17.2773L24.556 13.4314L17.0647 32.1427Z" fill="#E62A2B"/>
</g>
<defs>
<clipPath id="clip0_362_1418">
<rect width="36" height="36" fill="white"/>
</clipPath>
</defs>
</svg>
